<svg width="25" height="25" viewBox="0 0 25 25" fill="none" xmlns="http://www.w3.org/2000/svg">
<path d="M12.5 1C6.159 1 1 6.1585 1 12.5C1 18.8415 6.159 24 12.5 24C18.841 24 24 18.8415 24 12.5C24 6.1585 18.841 1 12.5 1ZM9 17.5H7V10H9V17.5ZM8 8.5C7.4475 8.5 7 8.0525 7 7.5C7 6.9475 7.4475 6.5 8 6.5C8.5525 6.5 9 6.9475 9 7.5C9 8.0525 8.5525 8.5 8 8.5ZM18.5 17.5H16.5V15V13.75C16.5 12.7875 15.7125 12 14.75 12C13.7875 12 13 12.7875 13 13.75V17.5H11V10H13V10.908C13.584 10.347 14.376 10 15.25 10C17.045 10 18.5 11.455 18.5 13.25V17.5Z" fill="currentColor"/>
</svg>
