<svg width="25" height="25" viewBox="0 0 25 25" fill="none" xmlns="http://www.w3.org/2000/svg">
<path d="M12.5 1C18.8515 1 24 6.1485 24 12.5C24 18.8515 18.8515 24 12.5 24C6.1485 24 1 18.8515 1 12.5C1 6.1485 6.1485 1 12.5 1ZM16.467 17.1875C16.6785 16.5385 17.6695 10.0705 17.792 8.796C17.829 8.41 17.707 8.1535 17.468 8.039C17.179 7.9 16.751 7.9695 16.2545 8.1485C15.5735 8.394 6.8675 12.0905 6.3645 12.3045C5.8875 12.507 5.4365 12.728 5.4365 13.048C5.4365 13.273 5.57 13.3995 5.938 13.531C6.321 13.6675 7.2855 13.96 7.855 14.117C8.4035 14.2685 9.028 14.137 9.378 13.9195C9.749 13.689 14.0305 10.824 14.338 10.573C14.645 10.322 14.89 10.6435 14.639 10.895C14.388 11.146 11.449 13.9985 11.0615 14.3935C10.591 14.873 10.925 15.37 11.2405 15.569C11.601 15.796 14.1935 17.535 14.584 17.814C14.9745 18.093 15.3705 18.2195 15.733 18.2195C16.0955 18.2195 16.2865 17.742 16.467 17.1875Z" fill="currentColor"/>
</svg>
